<?xml version="1.0" encoding="UTF-8" standalone="no"?>
<!DOCTYPE svg PUBLIC "-//W3C//DTD SVG 1.1//EN"
 "http://www.w3.org/Graphics/SVG/1.1/DTD/svg11.dtd">
<!-- Generated by graphviz version 2.43.0 (0)
 -->
<!-- Title: Deployment&#45;0 Pages: 1 -->
<svg width="1146pt" height="1933pt"
 viewBox="0.00 0.00 1146.00 1933.00" xmlns="http://www.w3.org/2000/svg" xmlns:xlink="http://www.w3.org/1999/xlink">
<g id="graph0" class="graph" transform="scale(1 1) rotate(0) translate(144 1789)">
<title>Deployment&#45;0</title>
<polygon fill="white" stroke="transparent" points="-144,144 -144,-1789 1002,-1789 1002,144 -144,144"/>
<text text-anchor="middle" x="429" y="-18" font-family="Sans-Serif" font-size="45.00" fill="#2d3436">Deployment&#45;0</text>
<g id="clust1" class="cluster">
<title>cluster_Backup</title>
<path fill="#e5f5fd" stroke="#aeb6be" d="M192,-66C192,-66 285,-66 285,-66 291,-66 297,-72 297,-78 297,-78 297,-229 297,-229 297,-235 291,-241 285,-241 285,-241 192,-241 192,-241 186,-241 180,-235 180,-229 180,-229 180,-78 180,-78 180,-72 186,-66 192,-66"/>
<text text-anchor="middle" x="210.5" y="-227.4" font-family="Sans-Serif" font-size="12.00" fill="#2d3436">Backup</text>
</g>
<g id="clust2" class="cluster">
<title>cluster_Storage</title>
<path fill="#e5f5fd" stroke="#aeb6be" d="M20,-249C20,-249 685,-249 685,-249 691,-249 697,-255 697,-261 697,-261 697,-1082 697,-1082 697,-1088 691,-1094 685,-1094 685,-1094 20,-1094 20,-1094 14,-1094 8,-1088 8,-1082 8,-1082 8,-261 8,-261 8,-255 14,-249 20,-249"/>
<text text-anchor="middle" x="40" y="-1080.4" font-family="Sans-Serif" font-size="12.00" fill="#2d3436">Storage</text>
</g>
<g id="clust3" class="cluster">
<title>cluster_OpeneEBS</title>
<path fill="#ebf3e7" stroke="#aeb6be" d="M28,-837C28,-837 677,-837 677,-837 683,-837 689,-843 689,-849 689,-849 689,-1053 689,-1053 689,-1059 683,-1065 677,-1065 677,-1065 28,-1065 28,-1065 22,-1065 16,-1059 16,-1053 16,-1053 16,-849 16,-849 16,-843 22,-837 28,-837"/>
<text text-anchor="middle" x="56" y="-1051.4" font-family="Sans-Serif" font-size="12.00" fill="#2d3436">OpeneEBS</text>
</g>
<g id="clust4" class="cluster">
<title>cluster_node from pod</title>
<path fill="#ece8f6" stroke="#aeb6be" d="M576,-853C576,-853 669,-853 669,-853 675,-853 681,-859 681,-865 681,-865 681,-1016 681,-1016 681,-1022 675,-1028 669,-1028 669,-1028 576,-1028 576,-1028 570,-1028 564,-1022 564,-1016 564,-1016 564,-865 564,-865 564,-859 570,-853 576,-853"/>
<text text-anchor="middle" x="616.5" y="-1014.4" font-family="Sans-Serif" font-size="12.00" fill="#2d3436">node from pod</text>
</g>
<g id="clust5" class="cluster">
<title>cluster_Pod + Volume</title>
<path fill="#ece8f6" stroke="#aeb6be" d="M36,-845C36,-845 441,-845 441,-845 447,-845 453,-851 453,-857 453,-857 453,-1008 453,-1008 453,-1014 447,-1020 441,-1020 441,-1020 36,-1020 36,-1020 30,-1020 24,-1014 24,-1008 24,-1008 24,-857 24,-857 24,-851 30,-845 36,-845"/>
<text text-anchor="middle" x="74.5" y="-1006.4" font-family="Sans-Serif" font-size="12.00" fill="#2d3436">Pod + Volume</text>
</g>
<g id="clust6" class="cluster">
<title>cluster_Longhorn</title>
<path fill="#ebf3e7" stroke="#aeb6be" d="M28,-257C28,-257 677,-257 677,-257 683,-257 689,-263 689,-269 689,-269 689,-817 689,-817 689,-823 683,-829 677,-829 677,-829 28,-829 28,-829 22,-829 16,-823 16,-817 16,-817 16,-269 16,-269 16,-263 22,-257 28,-257"/>
<text text-anchor="middle" x="52.5" y="-815.4" font-family="Sans-Serif" font-size="12.00" fill="#2d3436">Longhorn</text>
</g>
<g id="clust8" class="cluster">
<title>cluster_Pod + Volume</title>
<path fill="#ece8f6" stroke="#aeb6be" d="M36,-355C36,-355 441,-355 441,-355 447,-355 453,-361 453,-367 453,-367 453,-518 453,-518 453,-524 447,-530 441,-530 441,-530 36,-530 36,-530 30,-530 24,-524 24,-518 24,-518 24,-367 24,-367 24,-361 30,-355 36,-355"/>
<text text-anchor="middle" x="74.5" y="-516.4" font-family="Sans-Serif" font-size="12.00" fill="#2d3436">Pod + Volume</text>
</g>
<g id="clust7" class="cluster">
<title>cluster_Storage nodes</title>
<path fill="#ece8f6" stroke="#aeb6be" d="M576,-265C576,-265 669,-265 669,-265 675,-265 681,-271 681,-277 681,-277 681,-788 681,-788 681,-794 675,-800 669,-800 669,-800 576,-800 576,-800 570,-800 564,-794 564,-788 564,-788 564,-277 564,-277 564,-271 570,-265 576,-265"/>
<text text-anchor="middle" x="616" y="-786.4" font-family="Sans-Serif" font-size="12.00" fill="#2d3436">Storage nodes</text>
</g>
<g id="clust9" class="cluster">
<title>cluster_Internet</title>
<path fill="#e5f5fd" stroke="#aeb6be" d="M36,-1282C36,-1282 129,-1282 129,-1282 135,-1282 141,-1288 141,-1294 141,-1294 141,-1625 141,-1625 141,-1631 135,-1637 129,-1637 129,-1637 36,-1637 36,-1637 30,-1637 24,-1631 24,-1625 24,-1625 24,-1294 24,-1294 24,-1288 30,-1282 36,-1282"/>
<text text-anchor="middle" x="56" y="-1623.4" font-family="Sans-Serif" font-size="12.00" fill="#2d3436">Internet</text>
</g>
<g id="clust10" class="cluster">
<title>cluster_Ingress</title>
<path fill="#e5f5fd" stroke="#aeb6be" d="M184,-1102C184,-1102 838,-1102 838,-1102 844,-1102 850,-1108 850,-1114 850,-1114 850,-1482 850,-1482 850,-1488 844,-1494 838,-1494 838,-1494 184,-1494 184,-1494 178,-1494 172,-1488 172,-1482 172,-1482 172,-1114 172,-1114 172,-1108 178,-1102 184,-1102"/>
<text text-anchor="middle" x="201.5" y="-1480.4" font-family="Sans-Serif" font-size="12.00" fill="#2d3436">Ingress</text>
</g>
<g id="clust11" class="cluster">
<title>cluster_MetalLB</title>
<path fill="#ebf3e7" stroke="#aeb6be" d="M192,-1110C192,-1110 285,-1110 285,-1110 291,-1110 297,-1116 297,-1122 297,-1122 297,-1453 297,-1453 297,-1459 291,-1465 285,-1465 285,-1465 192,-1465 192,-1465 186,-1465 180,-1459 180,-1453 180,-1453 180,-1122 180,-1122 180,-1116 186,-1110 192,-1110"/>
<text text-anchor="middle" x="212.5" y="-1451.4" font-family="Sans-Serif" font-size="12.00" fill="#2d3436">MetalLB</text>
</g>
<g id="clust12" class="cluster">
<title>cluster_NGINX</title>
<path fill="#ebf3e7" stroke="#aeb6be" d="M348,-1110C348,-1110 441,-1110 441,-1110 447,-1110 453,-1116 453,-1122 453,-1122 453,-1453 453,-1453 453,-1459 447,-1465 441,-1465 441,-1465 348,-1465 348,-1465 342,-1465 336,-1459 336,-1453 336,-1453 336,-1122 336,-1122 336,-1116 342,-1110 348,-1110"/>
<text text-anchor="middle" x="364" y="-1451.4" font-family="Sans-Serif" font-size="12.00" fill="#2d3436">NGINX</text>
</g>
<g id="clust13" class="cluster">
<title>cluster_Certificates</title>
<path fill="#ebf3e7" stroke="#aeb6be" d="M576,-1290C576,-1290 830,-1290 830,-1290 836,-1290 842,-1296 842,-1302 842,-1302 842,-1453 842,-1453 842,-1459 836,-1465 830,-1465 830,-1465 576,-1465 576,-1465 570,-1465 564,-1459 564,-1453 564,-1453 564,-1302 564,-1302 564,-1296 570,-1290 576,-1290"/>
<text text-anchor="middle" x="606.5" y="-1451.4" font-family="Sans-Serif" font-size="12.00" fill="#2d3436">Certificates</text>
</g>
<!-- c07c77cd8711464d9ac5b483f5401aba -->
<g id="node1" class="node">
<title>c07c77cd8711464d9ac5b483f5401aba</title>
<image xlink:href="/home/sdelrio/github/k8s-gitops/doc/.venv/k8s_diagram/lib/python3.8/site-packages/resources/aws/storage/backup.png" width="101px" height="101px" preserveAspectRatio="xMinYMin meet" x="188" y="-193.5"/>
<text text-anchor="middle" x="238.5" y="-78.1" font-family="Sans-Serif" font-size="13.00" fill="#2d3436">Velero</text>
</g>
<!-- 2aa082aa27974c3090b7d66494a95320 -->
<g id="node4" class="node">
<title>2aa082aa27974c3090b7d66494a95320</title>
<image xlink:href="/home/sdelrio/github/k8s-gitops/doc/.venv/k8s_diagram/lib/python3.8/site-packages/resources/k8s/storage/pv.png" width="101px" height="101px" preserveAspectRatio="xMinYMin meet" x="344" y="-972.5"/>
<text text-anchor="middle" x="394.5" y="-857.1" font-family="Sans-Serif" font-size="13.00" fill="#2d3436">LocalPV</text>
</g>
<!-- c07c77cd8711464d9ac5b483f5401aba&#45;&gt;2aa082aa27974c3090b7d66494a95320 -->
<g id="edge5" class="edge">
<title>c07c77cd8711464d9ac5b483f5401aba&#45;&gt;2aa082aa27974c3090b7d66494a95320</title>
<path fill="none" stroke="darkred" stroke-dasharray="5,2" d="M299.1,-120.17C299.1,-120.17 317,-120.17 317,-120.17 317,-120.17 317,-899.17 317,-899.17 317,-899.17 333.67,-899.17 333.67,-899.17"/>
<polygon fill="darkred" stroke="darkred" points="299.1,-116.67 289.1,-120.17 299.1,-123.67 299.1,-116.67"/>
<polygon fill="darkred" stroke="darkred" points="333.67,-902.67 343.67,-899.17 333.67,-895.67 333.67,-902.67"/>
</g>
<!-- 8d20b5a5e4834fb8b8b376c48e56440b -->
<g id="node8" class="node">
<title>8d20b5a5e4834fb8b8b376c48e56440b</title>
<image xlink:href="/home/sdelrio/github/k8s-gitops/doc/.venv/k8s_diagram/lib/python3.8/site-packages/resources/k8s/storage/pv.png" width="101px" height="101px" preserveAspectRatio="xMinYMin meet" x="344" y="-482.5"/>
<text text-anchor="middle" x="394.5" y="-367.1" font-family="Sans-Serif" font-size="13.00" fill="#2d3436">Replicated</text>
</g>
<!-- c07c77cd8711464d9ac5b483f5401aba&#45;&gt;8d20b5a5e4834fb8b8b376c48e56440b -->
<g id="edge11" class="edge">
<title>c07c77cd8711464d9ac5b483f5401aba&#45;&gt;8d20b5a5e4834fb8b8b376c48e56440b</title>
<path fill="none" stroke="blue" stroke-dasharray="5,2" d="M299.31,-165.83C299.31,-165.83 395,-165.83 395,-165.83 395,-165.83 395,-353.46 395,-353.46"/>
<polygon fill="blue" stroke="blue" points="299.31,-162.33 289.31,-165.83 299.31,-169.33 299.31,-162.33"/>
<polygon fill="blue" stroke="blue" points="391.5,-353.46 395,-363.46 398.5,-353.46 391.5,-353.46"/>
</g>
<!-- a57e8760e17e4d6ea4ba2cad54229bc0 -->
<g id="node2" class="node">
<title>a57e8760e17e4d6ea4ba2cad54229bc0</title>
<image xlink:href="/home/sdelrio/github/k8s-gitops/doc/.venv/k8s_diagram/lib/python3.8/site-packages/resources/k8s/compute/pod.png" width="101px" height="101px" preserveAspectRatio="xMinYMin meet" x="32" y="-972.5"/>
<text text-anchor="middle" x="82.5" y="-857.1" font-family="Sans-Serif" font-size="13.00" fill="#2d3436">openebs&#45;hostpath</text>
</g>
<!-- 39c7319b61b7456f9c07f2e6ff5a5c4e -->
<g id="node3" class="node">
<title>39c7319b61b7456f9c07f2e6ff5a5c4e</title>
<image xlink:href="/home/sdelrio/github/k8s-gitops/doc/.venv/k8s_diagram/lib/python3.8/site-packages/resources/k8s/storage/pvc.png" width="101px" height="101px" preserveAspectRatio="xMinYMin meet" x="188" y="-972.5"/>
<text text-anchor="middle" x="238.5" y="-857.1" font-family="Sans-Serif" font-size="13.00" fill="#2d3436">claim</text>
</g>
<!-- a57e8760e17e4d6ea4ba2cad54229bc0&#45;&gt;39c7319b61b7456f9c07f2e6ff5a5c4e -->
<g id="edge1" class="edge">
<title>a57e8760e17e4d6ea4ba2cad54229bc0&#45;&gt;39c7319b61b7456f9c07f2e6ff5a5c4e</title>
<path fill="none" stroke="#7b8894" d="M133.15,-922C133.15,-922 177.84,-922 177.84,-922"/>
<polygon fill="#7b8894" stroke="#7b8894" points="177.84,-925.5 187.84,-922 177.84,-918.5 177.84,-925.5"/>
</g>
<!-- 996a15d686564b00869b8863afdb7e60 -->
<g id="node5" class="node">
<title>996a15d686564b00869b8863afdb7e60</title>
<image xlink:href="/home/sdelrio/github/k8s-gitops/doc/.venv/k8s_diagram/lib/python3.8/site-packages/resources/onprem/compute/server.png" width="101px" height="101px" preserveAspectRatio="xMinYMin meet" x="572" y="-980.5"/>
<text text-anchor="middle" x="622.5" y="-865.1" font-family="Sans-Serif" font-size="13.00" fill="#2d3436">node n</text>
</g>
<!-- a57e8760e17e4d6ea4ba2cad54229bc0&#45;&gt;996a15d686564b00869b8863afdb7e60 -->
<g id="edge4" class="edge">
<title>a57e8760e17e4d6ea4ba2cad54229bc0&#45;&gt;996a15d686564b00869b8863afdb7e60</title>
<path fill="none" stroke="#7b8894" d="M83,-990.6C83,-993.07 83,-994.5 83,-994.5 83,-994.5 561.75,-994.5 561.75,-994.5"/>
<polygon fill="#7b8894" stroke="#7b8894" points="561.75,-998 571.75,-994.5 561.75,-991 561.75,-998"/>
</g>
<!-- 39c7319b61b7456f9c07f2e6ff5a5c4e&#45;&gt;2aa082aa27974c3090b7d66494a95320 -->
<g id="edge2" class="edge">
<title>39c7319b61b7456f9c07f2e6ff5a5c4e&#45;&gt;2aa082aa27974c3090b7d66494a95320</title>
<path fill="none" stroke="#7b8894" d="M289.15,-944.83C289.15,-944.83 333.84,-944.83 333.84,-944.83"/>
<polygon fill="#7b8894" stroke="#7b8894" points="333.84,-948.33 343.84,-944.83 333.84,-941.33 333.84,-948.33"/>
</g>
<!-- 2aa082aa27974c3090b7d66494a95320&#45;&gt;996a15d686564b00869b8863afdb7e60 -->
<g id="edge3" class="edge">
<title>2aa082aa27974c3090b7d66494a95320&#45;&gt;996a15d686564b00869b8863afdb7e60</title>
<path fill="none" stroke="darkred" d="M445.1,-926C445.1,-926 561.65,-926 561.65,-926"/>
<polygon fill="darkred" stroke="darkred" points="561.65,-929.5 571.65,-926 561.65,-922.5 561.65,-929.5"/>
</g>
<!-- 109fd02867844a4f8d999ad3d038f4cd -->
<g id="node6" class="node">
<title>109fd02867844a4f8d999ad3d038f4cd</title>
<image xlink:href="/home/sdelrio/github/k8s-gitops/doc/.venv/k8s_diagram/lib/python3.8/site-packages/resources/k8s/compute/pod.png" width="101px" height="101px" preserveAspectRatio="xMinYMin meet" x="32" y="-482.5"/>
<text text-anchor="middle" x="82.5" y="-367.1" font-family="Sans-Serif" font-size="13.00" fill="#2d3436">longhorn</text>
</g>
<!-- e886062c83f942abbfb10a770945f41a -->
<g id="node7" class="node">
<title>e886062c83f942abbfb10a770945f41a</title>
<image xlink:href="/home/sdelrio/github/k8s-gitops/doc/.venv/k8s_diagram/lib/python3.8/site-packages/resources/k8s/storage/pvc.png" width="101px" height="101px" preserveAspectRatio="xMinYMin meet" x="188" y="-482.5"/>
<text text-anchor="middle" x="238.5" y="-367.1" font-family="Sans-Serif" font-size="13.00" fill="#2d3436">claim</text>
</g>
<!-- 109fd02867844a4f8d999ad3d038f4cd&#45;&gt;e886062c83f942abbfb10a770945f41a -->
<g id="edge6" class="edge">
<title>109fd02867844a4f8d999ad3d038f4cd&#45;&gt;e886062c83f942abbfb10a770945f41a</title>
<path fill="none" stroke="#7b8894" d="M133.15,-432C133.15,-432 177.84,-432 177.84,-432"/>
<polygon fill="#7b8894" stroke="#7b8894" points="177.84,-435.5 187.84,-432 177.84,-428.5 177.84,-435.5"/>
</g>
<!-- e886062c83f942abbfb10a770945f41a&#45;&gt;8d20b5a5e4834fb8b8b376c48e56440b -->
<g id="edge7" class="edge">
<title>e886062c83f942abbfb10a770945f41a&#45;&gt;8d20b5a5e4834fb8b8b376c48e56440b</title>
<path fill="none" stroke="#7b8894" d="M289.15,-432C289.15,-432 333.84,-432 333.84,-432"/>
<polygon fill="#7b8894" stroke="#7b8894" points="333.84,-435.5 343.84,-432 333.84,-428.5 333.84,-435.5"/>
</g>
<!-- 70944eb40fef48cab95602bd6f936e33 -->
<g id="node9" class="node">
<title>70944eb40fef48cab95602bd6f936e33</title>
<image xlink:href="/home/sdelrio/github/k8s-gitops/doc/.venv/k8s_diagram/lib/python3.8/site-packages/resources/onprem/compute/server.png" width="101px" height="101px" preserveAspectRatio="xMinYMin meet" x="572" y="-392.5"/>
<text text-anchor="middle" x="622.5" y="-277.1" font-family="Sans-Serif" font-size="13.00" fill="#2d3436">node&#45;3</text>
</g>
<!-- 8d20b5a5e4834fb8b8b376c48e56440b&#45;&gt;70944eb40fef48cab95602bd6f936e33 -->
<g id="edge8" class="edge">
<title>8d20b5a5e4834fb8b8b376c48e56440b&#45;&gt;70944eb40fef48cab95602bd6f936e33</title>
<path fill="none" stroke="blue" d="M445.1,-387C445.1,-387 561.65,-387 561.65,-387"/>
<polygon fill="blue" stroke="blue" points="561.65,-390.5 571.65,-387 561.65,-383.5 561.65,-390.5"/>
</g>
<!-- 649bc99b00db4a42b6f26f6f68a3adb8 -->
<g id="node10" class="node">
<title>649bc99b00db4a42b6f26f6f68a3adb8</title>
<image xlink:href="/home/sdelrio/github/k8s-gitops/doc/.venv/k8s_diagram/lib/python3.8/site-packages/resources/onprem/compute/server.png" width="101px" height="101px" preserveAspectRatio="xMinYMin meet" x="572" y="-572.5"/>
<text text-anchor="middle" x="622.5" y="-457.1" font-family="Sans-Serif" font-size="13.00" fill="#2d3436">node&#45;2</text>
</g>
<!-- 8d20b5a5e4834fb8b8b376c48e56440b&#45;&gt;649bc99b00db4a42b6f26f6f68a3adb8 -->
<g id="edge9" class="edge">
<title>8d20b5a5e4834fb8b8b376c48e56440b&#45;&gt;649bc99b00db4a42b6f26f6f68a3adb8</title>
<path fill="none" stroke="blue" d="M445.1,-477C445.1,-477 561.65,-477 561.65,-477"/>
<polygon fill="blue" stroke="blue" points="561.65,-480.5 571.65,-477 561.65,-473.5 561.65,-480.5"/>
</g>
<!-- edfcc1bd023144c6a0dd4a23296059c3 -->
<g id="node11" class="node">
<title>edfcc1bd023144c6a0dd4a23296059c3</title>
<image xlink:href="/home/sdelrio/github/k8s-gitops/doc/.venv/k8s_diagram/lib/python3.8/site-packages/resources/onprem/compute/server.png" width="101px" height="101px" preserveAspectRatio="xMinYMin meet" x="572" y="-752.5"/>
<text text-anchor="middle" x="622.5" y="-637.1" font-family="Sans-Serif" font-size="13.00" fill="#2d3436">node&#45;1</text>
</g>
<!-- 8d20b5a5e4834fb8b8b376c48e56440b&#45;&gt;edfcc1bd023144c6a0dd4a23296059c3 -->
<g id="edge10" class="edge">
<title>8d20b5a5e4834fb8b8b376c48e56440b&#45;&gt;edfcc1bd023144c6a0dd4a23296059c3</title>
<path fill="none" stroke="blue" d="M395,-500.83C395,-580.83 395,-702 395,-702 395,-702 561.73,-702 561.73,-702"/>
<polygon fill="blue" stroke="blue" points="561.73,-705.5 571.73,-702 561.73,-698.5 561.73,-705.5"/>
</g>
<!-- 62dc0176c92c48009c2d8555e33bd2b0 -->
<g id="node12" class="node">
<title>62dc0176c92c48009c2d8555e33bd2b0</title>
<image xlink:href="/home/sdelrio/github/k8s-gitops/doc/.venv/k8s_diagram/lib/python3.8/site-packages/resources/onprem/network/internet.png" width="101px" height="101px" preserveAspectRatio="xMinYMin meet" x="32" y="-1409.5"/>
<text text-anchor="middle" x="82.5" y="-1294.1" font-family="Sans-Serif" font-size="13.00" fill="#2d3436">HTTP clients</text>
</g>
<!-- 63b2fc828f634a80b18a9151523c812f -->
<g id="node16" class="node">
<title>63b2fc828f634a80b18a9151523c812f</title>
<image xlink:href="/home/sdelrio/github/k8s-gitops/doc/.venv/k8s_diagram/lib/python3.8/site-packages/resources/gcp/network/load-balancing.png" width="101px" height="101px" preserveAspectRatio="xMinYMin meet" x="188" y="-1417.5"/>
<text text-anchor="middle" x="238.5" y="-1302.1" font-family="Sans-Serif" font-size="13.00" fill="#2d3436">IP1</text>
</g>
<!-- 62dc0176c92c48009c2d8555e33bd2b0&#45;&gt;63b2fc828f634a80b18a9151523c812f -->
<g id="edge17" class="edge">
<title>62dc0176c92c48009c2d8555e33bd2b0&#45;&gt;63b2fc828f634a80b18a9151523c812f</title>
<path fill="none" stroke="blue" d="M133.15,-1363C133.15,-1363 177.84,-1363 177.84,-1363"/>
<polygon fill="blue" stroke="blue" points="177.84,-1366.5 187.84,-1363 177.84,-1359.5 177.84,-1366.5"/>
</g>
<!-- a453e5a31bdb469d855082c55432c58f -->
<g id="node13" class="node">
<title>a453e5a31bdb469d855082c55432c58f</title>
<image xlink:href="/home/sdelrio/github/k8s-gitops/doc/.venv/k8s_diagram/lib/python3.8/site-packages/resources/onprem/network/internet.png" width="101px" height="101px" preserveAspectRatio="xMinYMin meet" x="32" y="-1589.5"/>
<text text-anchor="middle" x="82.5" y="-1474.1" font-family="Sans-Serif" font-size="13.00" fill="#2d3436">Cert provider</text>
</g>
<!-- a453e5a31bdb469d855082c55432c58f&#45;&gt;63b2fc828f634a80b18a9151523c812f -->
<g id="edge13" class="edge">
<title>a453e5a31bdb469d855082c55432c58f&#45;&gt;63b2fc828f634a80b18a9151523c812f</title>
<path fill="none" stroke="darkred" d="M83,-1470.31C83,-1449.24 83,-1431.5 83,-1431.5 83,-1431.5 177.58,-1431.5 177.58,-1431.5"/>
<polygon fill="darkred" stroke="darkred" points="177.58,-1435 187.58,-1431.5 177.58,-1428 177.58,-1435"/>
</g>
<!-- adf1c9a7855048ddb6932705f5658bf3 -->
<g id="node18" class="node">
<title>adf1c9a7855048ddb6932705f5658bf3</title>
<image xlink:href="/home/sdelrio/github/k8s-gitops/doc/.venv/k8s_diagram/lib/python3.8/site-packages/resources/aws/security/certificate-manager.png" width="101px" height="101px" preserveAspectRatio="xMinYMin meet" x="733" y="-1417.5"/>
<text text-anchor="middle" x="783.5" y="-1302.1" font-family="Sans-Serif" font-size="13.00" fill="#2d3436">cert&#45;issuer</text>
</g>
<!-- a453e5a31bdb469d855082c55432c58f&#45;&gt;adf1c9a7855048ddb6932705f5658bf3 -->
<g id="edge19" class="edge">
<title>a453e5a31bdb469d855082c55432c58f&#45;&gt;adf1c9a7855048ddb6932705f5658bf3</title>
<path fill="none" stroke="red" stroke-dasharray="5,2" d="M143.23,-1539C143.23,-1539 784,-1539 784,-1539 784,-1539 784,-1483.82 784,-1435.97"/>
<polygon fill="red" stroke="red" points="143.23,-1535.5 133.23,-1539 143.23,-1542.5 143.23,-1535.5"/>
<text text-anchor="middle" x="394.5" y="-1533.6" font-family="Sans-Serif" font-size="13.00" fill="#2d3436">http&#45;01</text>
</g>
<!-- e3c1f394c5454b25b8ba3cbd00c99538 -->
<g id="node14" class="node">
<title>e3c1f394c5454b25b8ba3cbd00c99538</title>
<image xlink:href="/home/sdelrio/github/k8s-gitops/doc/.venv/k8s_diagram/lib/python3.8/site-packages/resources/onprem/compute/server.png" width="101px" height="101px" preserveAspectRatio="xMinYMin meet" x="32" y="-1229.5"/>
<text text-anchor="middle" x="82.5" y="-1114.1" font-family="Sans-Serif" font-size="13.00" fill="#2d3436">LAN</text>
</g>
<!-- aa41718433b9496785b1524ee082ec8c -->
<g id="node20" class="node">
<title>aa41718433b9496785b1524ee082ec8c</title>
<image xlink:href="/home/sdelrio/github/k8s-gitops/doc/.venv/k8s_diagram/lib/python3.8/site-packages/resources/gcp/network/load-balancing.png" width="101px" height="101px" preserveAspectRatio="xMinYMin meet" x="188" y="-1237.5"/>
<text text-anchor="middle" x="238.5" y="-1122.1" font-family="Sans-Serif" font-size="13.00" fill="#2d3436">IP2</text>
</g>
<!-- e3c1f394c5454b25b8ba3cbd00c99538&#45;&gt;aa41718433b9496785b1524ee082ec8c -->
<g id="edge20" class="edge">
<title>e3c1f394c5454b25b8ba3cbd00c99538&#45;&gt;aa41718433b9496785b1524ee082ec8c</title>
<path fill="none" stroke="blue" d="M133.15,-1183C133.15,-1183 177.84,-1183 177.84,-1183"/>
<polygon fill="blue" stroke="blue" points="177.84,-1186.5 187.84,-1183 177.84,-1179.5 177.84,-1186.5"/>
</g>
<!-- ee16878b4d6a42d483f20c7c480fc193 -->
<g id="node15" class="node">
<title>ee16878b4d6a42d483f20c7c480fc193</title>
<image xlink:href="/home/sdelrio/github/k8s-gitops/doc/.venv/k8s_diagram/lib/python3.8/site-packages/resources/aws/storage/simple-storage-service-s3.png" width="101px" height="101px" preserveAspectRatio="xMinYMin meet" x="32" y="-193.5"/>
<text text-anchor="middle" x="82.5" y="-78.1" font-family="Sans-Serif" font-size="13.00" fill="#2d3436">S3</text>
</g>
<!-- ee16878b4d6a42d483f20c7c480fc193&#45;&gt;c07c77cd8711464d9ac5b483f5401aba -->
<g id="edge12" class="edge">
<title>ee16878b4d6a42d483f20c7c480fc193&#45;&gt;c07c77cd8711464d9ac5b483f5401aba</title>
<path fill="none" stroke="blue" d="M143.15,-143C143.15,-143 177.84,-143 177.84,-143"/>
<polygon fill="blue" stroke="blue" points="177.84,-146.5 187.84,-143 177.84,-139.5 177.84,-146.5"/>
<polygon fill="blue" stroke="blue" points="143.15,-139.5 133.15,-143 143.15,-146.5 143.15,-139.5"/>
</g>
<!-- a67f0ec1a8fd4b319a10fc076b6d8ed2 -->
<g id="node19" class="node">
<title>a67f0ec1a8fd4b319a10fc076b6d8ed2</title>
<image xlink:href="/home/sdelrio/github/k8s-gitops/doc/.venv/k8s_diagram/lib/python3.8/site-packages/resources/onprem/network/nginx.png" width="101px" height="101px" preserveAspectRatio="xMinYMin meet" x="344" y="-1417.5"/>
<text text-anchor="middle" x="394.5" y="-1302.1" font-family="Sans-Serif" font-size="13.00" fill="#2d3436">External</text>
</g>
<!-- 63b2fc828f634a80b18a9151523c812f&#45;&gt;a67f0ec1a8fd4b319a10fc076b6d8ed2 -->
<g id="edge18" class="edge">
<title>63b2fc828f634a80b18a9151523c812f&#45;&gt;a67f0ec1a8fd4b319a10fc076b6d8ed2</title>
<path fill="none" stroke="darkgreen" d="M289.15,-1367C289.15,-1367 333.84,-1367 333.84,-1367"/>
<polygon fill="darkgreen" stroke="darkgreen" points="333.84,-1370.5 343.84,-1367 333.84,-1363.5 333.84,-1370.5"/>
</g>
<!-- 7ecd7bb102604ee58346c592da5e918f -->
<g id="node17" class="node">
<title>7ecd7bb102604ee58346c592da5e918f</title>
<image xlink:href="/home/sdelrio/github/k8s-gitops/doc/.venv/k8s_diagram/lib/python3.8/site-packages/resources/aws/security/certificate-manager.png" width="101px" height="101px" preserveAspectRatio="xMinYMin meet" x="572" y="-1417.5"/>
<text text-anchor="middle" x="622.5" y="-1302.1" font-family="Sans-Serif" font-size="13.00" fill="#2d3436">cert&#45;manager</text>
</g>
<!-- 7ecd7bb102604ee58346c592da5e918f&#45;&gt;adf1c9a7855048ddb6932705f5658bf3 -->
<g id="edge14" class="edge">
<title>7ecd7bb102604ee58346c592da5e918f&#45;&gt;adf1c9a7855048ddb6932705f5658bf3</title>
<path fill="none" stroke="#7b8894" d="M673.44,-1367C673.44,-1367 722.89,-1367 722.89,-1367"/>
<polygon fill="#7b8894" stroke="#7b8894" points="722.89,-1370.5 732.89,-1367 722.89,-1363.5 722.89,-1370.5"/>
</g>
<!-- a67f0ec1a8fd4b319a10fc076b6d8ed2&#45;&gt;7ecd7bb102604ee58346c592da5e918f -->
<g id="edge15" class="edge">
<title>a67f0ec1a8fd4b319a10fc076b6d8ed2&#45;&gt;7ecd7bb102604ee58346c592da5e918f</title>
<path fill="none" stroke="red" d="M445.1,-1344.17C445.1,-1344.17 561.65,-1344.17 561.65,-1344.17"/>
<polygon fill="red" stroke="red" points="561.65,-1347.67 571.65,-1344.17 561.65,-1340.67 561.65,-1347.67"/>
<text text-anchor="middle" x="508.5" y="-1339.6" font-family="Sans-Serif" font-size="13.00" fill="#2d3436">acme</text>
</g>
<!-- a67f0ec1a8fd4b319a10fc076b6d8ed2&#45;&gt;7ecd7bb102604ee58346c592da5e918f -->
<g id="edge16" class="edge">
<title>a67f0ec1a8fd4b319a10fc076b6d8ed2&#45;&gt;7ecd7bb102604ee58346c592da5e918f</title>
<path fill="none" stroke="red" d="M455.1,-1389.83C455.1,-1389.83 571.65,-1389.83 571.65,-1389.83"/>
<polygon fill="red" stroke="red" points="455.1,-1386.33 445.1,-1389.83 455.1,-1393.33 455.1,-1386.33"/>
<text text-anchor="middle" x="508.5" y="-1401.6" font-family="Sans-Serif" font-size="13.00" fill="#2d3436">cert&#45;secret</text>
</g>
<!-- f44411500c8947b0bf733c9abceb7464 -->
<g id="node21" class="node">
<title>f44411500c8947b0bf733c9abceb7464</title>
<image xlink:href="/home/sdelrio/github/k8s-gitops/doc/.venv/k8s_diagram/lib/python3.8/site-packages/resources/onprem/network/nginx.png" width="101px" height="101px" preserveAspectRatio="xMinYMin meet" x="344" y="-1237.5"/>
<text text-anchor="middle" x="394.5" y="-1122.1" font-family="Sans-Serif" font-size="13.00" fill="#2d3436">Internal</text>
</g>
<!-- aa41718433b9496785b1524ee082ec8c&#45;&gt;f44411500c8947b0bf733c9abceb7464 -->
<g id="edge21" class="edge">
<title>aa41718433b9496785b1524ee082ec8c&#45;&gt;f44411500c8947b0bf733c9abceb7464</title>
<path fill="none" stroke="darkgreen" d="M289.15,-1187C289.15,-1187 333.84,-1187 333.84,-1187"/>
<polygon fill="darkgreen" stroke="darkgreen" points="333.84,-1190.5 343.84,-1187 333.84,-1183.5 333.84,-1190.5"/>
</g>
</g>
</svg>
